<?xml version="1.0" encoding="utf-8"?>
<!-- Svg Vector Icons : http://www.onlinewebfonts.com/icon -->
<!DOCTYPE svg PUBLIC "-//W3C//DTD SVG 1.1//EN" "http://www.w3.org/Graphics/SVG/1.1/DTD/svg11.dtd">
<svg version="1.1" xmlns="http://www.w3.org/2000/svg" xmlns:xlink="http://www.w3.org/1999/xlink" x="0px" y="0px" viewBox="0 0 1000 1000" enable-background="new 0 0 1000 1000" xml:space="preserve">
<metadata> Svg Vector Icons : http://www.onlinewebfonts.com/icon </metadata>
<g><g transform="translate(0.000000,511.000000) scale(0.100000,-0.100000)"><path d="M4620.9,5001.7c-1338.9-140.5-2390.5-662-3261.1-1615.7C-204.8,1672.5-326.1-952.2,1074.6-2827.5c781.2-1045.2,1911.5-1715.7,3237.7-1922.2c338.5-51.1,1043.1-51.1,1383.6,0c877,136.2,1688,485.3,2352.2,1011.1c327.8,259.7,736.5,696.1,992,1057.9c408.7,579,704.6,1332.6,821.7,2096.7c51.1,338.5,51.1,1045.2,0,1383.6c-112.8,725.9-372.5,1413.4-755.7,1994.6c-781.2,1179.3-1983.9,1949.8-3388.8,2167C5502.2,4993.2,4799.7,5020.9,4620.9,5001.7z M5261.7,3422.3c132-68.1,206.5-138.4,274.6-264l63.9-112.8l6.4-1164.4l6.4-1166.5h1145.2h1145.2l129.8-66c206.5-102.2,321.4-272.5,340.6-500.2c19.2-255.4-127.7-500.2-361.9-606.7l-112.8-51.1L6756-515.8l-1143.1-6.4l-6.4-1164.4c-6.4-1298.5,4.3-1209.1-161.8-1392.2c-221.4-244.8-619.5-255.4-862.1-21.3c-44.7,42.6-102.2,117.1-127.7,163.9c-46.8,83-46.8,106.4-57.5,1255.9l-10.6,1170.8l-1149.5,4.3c-1302.7,4.3-1255.9-2.1-1436.9,178.8c-291.6,291.6-212.9,777,157.5,972.8l108.6,57.5l1153.7,6.4l1153.7,6.4l6.4,1143.1l6.4,1143.1l51.1,112.8c59.6,132,219.3,285.3,349.1,332.1C4910.4,3494.6,5146.7,3481.8,5261.7,3422.3z"/></g></g>
</svg>